<?xml version="1.0" encoding="UTF-8"?>
<!DOCTYPE svg PUBLIC "-//W3C//DTD SVG 1.1//EN" "http://www.w3.org/Graphics/SVG/1.1/DTD/svg11.dtd">
<!-- Creator: CorelDRAW -->
<svg xmlns="http://www.w3.org/2000/svg" xml:space="preserve" width="610px" height="564px" version="1.1" style="shape-rendering:geometricPrecision; text-rendering:geometricPrecision; image-rendering:optimizeQuality; fill-rule:evenodd; clip-rule:evenodd"
viewBox="0 0 132.42 122.42"
 xmlns:xlink="http://www.w3.org/1999/xlink"
 xmlns:xodm="http://www.corel.com/coreldraw/odm/2003">
 <defs>
  <style type="text/css">
   <![CDATA[
    .fil1 {fill:#020202}
    .fil2 {fill:#FEFEF9}
    .fil3 {fill:#FFF1B3}
    .fil4 {fill:white}
    .fil0 {fill:black;fill-opacity:0.250980}
   ]]>
  </style>
 </defs>
 <g id="Camada_x0020_1">
  <metadata id="CorelCorpID_0Corel-Layer"/>
  <path class="fil0" d="M65.96 113.16c34.4,0 62.28,2.07 62.28,4.63 0,2.56 -27.88,4.63 -62.28,4.63 -34.39,0 -62.28,-2.07 -62.28,-4.63 0,-2.56 27.89,-4.63 62.28,-4.63z"/>
  <polygon class="fil1" points="69.57,74.97 70.25,118.13 73.65,118.02 73.72,111.61 122.06,111.82 122.23,117.96 125.59,118.08 125.72,74.94 128.48,74.64 128.59,70.15 132.41,69.99 132.42,67.44 63.35,67.6 63.26,70.03 67.24,70.3 67.31,74.89 "/>
  <path class="fil1" d="M52.57 114.95c1.66,3.73 8.69,5.3 11.56,0.31 2.29,-3.98 -1.13,-31.11 -1.61,-36.92 -0.44,-5.31 -1.49,-8.8 -7.07,-9.08 -5.39,-0.26 -11.37,0 -16.83,-0.02 -0.98,-4.66 -1.29,-10.59 -0.53,-16.78 2.52,4.92 5.08,9.59 6.04,10.58l0 0c0.19,0.11 0.51,0.22 0.95,0.31 1.27,0.32 3.05,0.5 5.12,0.56 6.33,0.4 15.53,0.43 17.9,0.43 2.64,0 7.91,0.97 8.46,-3.24 -0.7,-3.48 -1.84,-3.9 -5.19,-4.33l-20.76 -0.39 0 0c-2.74,-1.86 -7.86,-16.85 -10.78,-20.14l-0.02 -0.03c-3.79,-4.52 -11.52,-1.57 -14.77,2.63 -3.09,4 -5.54,14.38 -6.01,20.96 -2.24,31.53 14.19,20.96 30.37,23.07 0.31,5.53 1.45,28.25 3.17,32.08z"/>
  <path class="fil1" d="M90.21 61.36l3.18 0.48c0.84,-3.67 2.65,-16.34 3.6,-18.46 1.05,1.01 1.47,2.89 2.24,4.76 1.47,3.61 5.24,12.4 5.82,15.08l-16.87 0.07 0.04 1.99 20.05 0.17c-0.59,-2.77 -3.36,-9.13 -4.56,-11.93 -1.67,-3.9 -3.09,-7.97 -4.77,-11.97 -1.46,-3.45 -1.29,-2.93 -0.65,-6.57 0.86,-4.87 3.65,-18.33 3.71,-21.32l-3.29 -0.58c-1.18,6.54 -8.68,45.13 -8.5,48.28z"/>
  <path class="fil1" d="M44.69 30.67c-1.95,-0.01 -1.45,-0.02 -2.06,-0.42l0.01 -0.86c1.07,-0.56 7.18,-0.77 9.08,0.43 -0.43,1.5 0.34,1.25 -1.58,1.12l-5.45 -0.27zm-9.78 -9.93c-2.34,8.69 7.11,17.25 16.23,13.8 3.39,-1.28 4.6,-3.63 6.79,-5.54 -4.56,-0.11 -3.62,-1.97 -5.07,-5.17 -2.61,-0.68 -1.19,3.06 -5.53,2.88 -3.03,-0.13 -3.95,-2.41 -3.94,-5.35l-7.95 -2.1c-0.16,0.37 -0.04,0.1 -0.53,1.48z"/>
  <path class="fil1" d="M35.8 18.22l8.6 2c3.67,-5.62 7.8,2.08 7.8,2.08 3.32,0.67 1.91,0.07 6.1,0.08 0.14,-0.1 1.33,-0.92 -0.8,-4.9 -3.66,-6.83 -12.98,-8.69 -19.12,-3 -0.69,0.64 -2.14,2.83 -2.58,3.74z"/>
  <path class="fil2" d="M54.19 25.54c-0.41,-4.3 5.85,-5.02 6.24,-0.81 0.4,4.22 -5.87,4.67 -6.24,0.81zm-8.13 -5.63c4.1,-2.18 6.36,3.5 3.09,5.36 -3.67,2.09 -6.93,-3.33 -3.09,-5.36zm-10.17 -0.46l7.5 1.91c-0.01,2.94 0.91,5.22 3.94,5.35 4.34,0.18 2.92,-3.56 5.53,-2.88 1.18,2.59 0.05,4.22 3.48,5.22 2.81,0.15 4.69,-0.89 5.06,-3.11 0.25,-1.52 -0.17,-2.61 -0.79,-3.42 -2.96,-3.82 -5.57,0.35 -8.41,-0.22 0,0 -4.13,-7.7 -7.8,-2.08l-8.3 -1.92c-1.43,-0.35 -2.53,-1.16 -3.74,-0.47 0.93,1.82 0.91,0.42 3.53,1.62z"/>
  <path class="fil1" d="M46.06 19.91c-3.84,2.03 -0.58,7.45 3.09,5.36 3.27,-1.86 1.01,-7.54 -3.09,-5.36z"/>
  <path class="fil1" d="M54.19 25.54c0.37,3.86 6.64,3.41 6.24,-0.81 -0.39,-4.21 -6.65,-3.49 -6.24,0.81z"/>
  <polygon class="fil1" points="76.01,65.31 84.77,65.45 84.43,63.31 79.42,63.24 77.31,63.29 "/>
  <path class="fil2" d="M42.64 29.39l-0.01 0.86c0.61,0.4 0.11,0.41 2.06,0.42l5.45 0.27c1.92,0.13 1.15,0.38 1.58,-1.12 -1.9,-1.2 -8.01,-0.99 -9.08,-0.43z"/>
  <path class="fil1" d="M15.33 112.45l-0.07 -0.84 4.61 -1.25 7.46 -2.42 -0.08 3.71c-0.97,0.53 -1.64,1.56 -1.64,2.74 0,1.72 1.4,3.12 3.12,3.12 1.72,0 3.12,-1.4 3.12,-3.12 0,-1.21 -0.7,-2.26 -1.71,-2.78l-0.07 -3.57 13.07 3.87c-1.02,0.51 -1.71,1.56 -1.71,2.78 0,1.72 1.39,3.11 3.12,3.11 1.72,0 3.11,-1.39 3.11,-3.11 0,-1.14 -0.61,-2.13 -1.52,-2.68 -0.6,-1.04 -0.08,-1.28 -0.69,-1.95 -0.8,-0.87 -10.9,-3.55 -13.56,-4.44 -1.07,-0.36 -0.99,-0.28 -1.81,-0.82l0.07 -10.71 2.2 -0.79c3.9,-1.93 12.95,-0.58 14.01,-6.12 -5.04,-3.57 -25.84,-1.83 -33.01,-1.12l-5.39 -14.74c1.97,1.58 3.05,4.67 6.71,4.34 0.59,-6.07 -8.46,-31.38 -12.9,-32.96 -2.46,3.23 -1.89,9.01 -0.36,13.01l-1.41 1.53c0.14,2.19 3.33,9.78 4.25,12.2l6.56 17.48c2.41,6.1 10.97,4.67 13.98,6.13 1.15,0.56 0.25,0.56 2.6,0.88l0 11.16c-5.4,1.52 -15.63,4.02 -15.72,5.97l-0.02 0.47c-1.1,0.48 -1.87,1.58 -1.87,2.86 0,1.72 1.39,3.12 3.11,3.12 1.73,0 3.12,-1.4 3.12,-3.12 0,-0.73 -0.25,-1.41 -0.68,-1.94z"/>
  <g id="_2644454829808">
   <path class="fil3" d="M69.75 4.43c1.59,2.27 -3.33,2.06 -3.1,4.7 0.28,3.16 1.76,0.37 2.42,-0.35 0.18,-0.19 6.06,-2.9 2.48,-5.77 -4.12,-3.3 -6.88,2.22 -4.05,1.99 1.59,-0.13 0.35,-1.82 2.25,-0.57z"/>
   <circle class="fil3" cx="66.31" cy="13.32" r="1.42"/>
  </g>
  <g id="_2644454839504">
   <path class="fil3" d="M63.09 4.5c0.63,-2.09 1.9,-4.59 -1.26,-4.5 -0.67,1.03 -1.87,7.31 -1.82,7.97 0.79,3.88 3.04,-3.36 3.08,-3.47z"/>
   <circle class="fil3" cx="59.99" cy="11.73" r="1.42"/>
  </g>
  <g id="_1718258068128">
   <path class="fil4" d="M101.78 88.19l-3.94 -2.28 -3.94 2.28 3.94 2.27 3.94 -2.27zm0 0z"/>
   <path class="fil4" d="M98.13 95.51l3.93 -2.28 0 -4.55 -3.93 2.28 0 4.55zm0 0z"/>
   <path class="fil4" d="M93.61 88.68l0 4.55 3.94 2.28 0 -4.55 -3.94 -2.28zm0 0z"/>
  </g>
 </g>
</svg>
