<?xml version="1.0" encoding="UTF-8"?>
<!DOCTYPE svg PUBLIC "-//W3C//DTD SVG 1.1//EN" "http://www.w3.org/Graphics/SVG/1.1/DTD/svg11.dtd">
<!-- Creator: CorelDRAW 2018 (64 Bit Versão de avaliação) -->
<svg xmlns="http://www.w3.org/2000/svg" xml:space="preserve" width="52.7057mm" height="27.3457mm" version="1.1" style="shape-rendering:geometricPrecision; text-rendering:geometricPrecision; image-rendering:optimizeQuality; fill-rule:evenodd; clip-rule:evenodd"
viewBox="0 0 5270.58 2734.58"
 xmlns:xlink="http://www.w3.org/1999/xlink">
 <defs>
  <style type="text/css">
   <![CDATA[
    .fil1 {fill:#030404}
    .fil2 {fill:#050505}
    .fil3 {fill:#F5F8F4}
    .fil4 {fill:#F9FBFB}
    .fil5 {fill:white}
    .fil0 {fill:black;fill-opacity:0.250980}
   ]]>
  </style>
 </defs>
 <g id="Camada_x0020_1">
  <metadata id="CorelCorpID_0Corel-Layer"/>
  <path class="fil0" d="M211.22 2618.87c-9.24,1.71 -32.27,5.99 -41.01,9.46 -28.3,11.27 -26.61,17.43 -30.95,24.49 18.04,26.58 -7.01,7.51 32.24,22.79 153.52,59.77 1145.49,70.3 1224.35,-22.79 -82.21,-94.01 -1074.53,-54.38 -1184.63,-33.95z"/>
  <path class="fil0" d="M2262.27 2652.83c117.25,146.76 1471.99,31.91 1180.29,-40.08 -95.6,-21.25 -1119.26,-36.9 -1180.29,40.08z"/>
  <path class="fil0" d="M3760.26 2570.52c-12.47,289.68 1231.83,114.08 1257.16,82.3 -77.82,-98.67 -1216.94,-77.22 -1257.16,-82.3z"/>
  <path class="fil1" d="M4024.99 1429.57c-22.68,-114.87 19.39,-401.73 68.09,-484.16 6.93,85.18 1.38,189.13 1.38,276.54 -0.01,156.08 16.56,113.92 -69.47,207.62zm644.96 -475.19c34.14,33.5 46.27,120.83 51.89,167.48 -27.34,-5.72 -25.77,-8.45 -51.66,-26.87l-0.23 -140.61zm5.09 -282.08c2.77,50.98 -101.6,181.94 -131.13,225.89l-357.39 531.84c-20.43,30.38 -47.15,89.58 -86.38,92.69 -3.96,-3.94 -11.09,-10.22 -16.28,-15.22 1.29,-43.46 226.01,-354.78 265.01,-414.51 67.62,-103.55 225.75,-327.12 274.86,-413.84 -140.26,-4.17 -302.67,-6.87 -442.36,-1.69 -313.05,11.59 -332.81,538.04 -330.85,773.09 1.02,121.4 18.86,121.52 -14.16,193.73 31.19,21.59 63.62,58.39 99.34,86.47 37.15,29.21 68.32,54.35 111.89,74.99 -22.86,160.36 -86.71,611.09 -98.76,727.32 -6.39,61.99 55.13,116.24 114.74,120.79 66.85,5.1 134.58,-44.41 143.61,-110.65 86.67,-632.92 30.83,-191.06 140.02,-965.79 20.53,-9.37 2.4,-4.79 29.54,-7.48 16.28,-1.62 23.78,0.04 39.22,1.84 22.89,160.41 102.57,979.13 184.89,1050.99 17.98,15.7 38.36,26.21 64.49,30.03 212.53,31.08 135.48,-267.54 119.21,-381.53 -44.03,-308.5 -123.24,-729.39 -113.33,-1018.22l68.17 35.22c3.98,71.8 4.66,141.17 2.2,213.09 -2.37,68.97 -19.44,136.54 27.03,175.05 49.3,40.86 114.27,13.43 131.74,-31.75 34.48,-89.21 3.14,-488.36 -13.5,-576.32 -36.46,-192.75 -61.35,-180.5 -113.41,-295.11 34.28,-51.35 192.61,-210.81 255.25,-287.52 29.5,-36.13 7.68,-16.56 20.1,-47.42 16.6,-41.21 172.37,-162.91 221.78,-240.79 -20.49,-20.5 -11.91,-19.95 -38.98,-37.22 -78.15,50.87 -181.67,208.7 -245.02,232.86 -83.99,32.03 -234.23,237.74 -311.54,279.17z"/>
  <path class="fil1" d="M3188.57 955.21c23.69,22.98 24.65,40.54 34.48,81.61 6.97,29.11 14.3,56.92 16.73,88.66l-51.69 -30.52 0.48 -139.75zm-48.18 -276.61c-98.8,-1.2 -197.5,-1.12 -296.39,-1.11 -140.11,0.01 -126.4,-0.01 -242.62,-42.69l-832.71 -318.42c-33.22,-12.31 -70.79,-27.79 -104.49,-40.04 -50.12,-18.21 -83.44,10.87 -56.62,47.31 17.23,23.4 163.05,57.87 200.62,85.5 -8.37,32.71 -15.97,53 -13.07,94.49 75.31,53.23 698.29,256.68 817.68,320.84l-1.14 493.46c1.55,33.66 -3.21,37.15 -16.05,55.71 -20.27,23.77 -37.38,39.1 -60.67,64.03l-180.64 199.14c25.26,39.65 153.47,139.93 208.85,169.44 -2.48,92.82 -63.75,454.54 -83.65,593.07 -11.62,80.86 -16.59,178.98 30.11,217.95 293.79,245.19 336.8,-902.07 356.83,-1039.73 22.82,-11.5 41.8,-8.76 68.27,-5.91 25.2,177.6 72.03,1053.17 248.72,1080.9 66.55,10.43 104.62,-25.04 132.72,-54.06 40.55,-85.07 1.13,-230.44 -13.68,-327.64 -47.45,-311.36 -120.12,-723.9 -112.92,-1017.75l66.71 36.6c12.78,96.12 -26.81,340.18 30.61,386.86 49.66,40.38 114.25,13.84 131.76,-31.84 34.21,-89.18 2.15,-487.82 -13.49,-576.64 -33.31,-189.12 -73.74,-198.57 -114.84,-299.8l252.33 -278.46c52.03,-58.61 -36.64,-11.27 118.44,-152.57 24.01,-21.88 112.23,-112.78 126.05,-139.75 -18.36,-27.2 -14.85,-23.32 -37.18,-36.29 -32.59,19.68 -108.45,101.3 -139.38,134 -157.37,166.39 -77.06,59.09 -144.03,118.31 -57.51,50.87 -226.81,231.65 -273.35,258.84 2.29,15.13 -91.56,152.15 -52.78,6.25z"/>
  <path class="fil1" d="M360.43 1389.31c-26.21,6.77 -44.78,17.89 -64.86,29.76 -50.9,66.8 -40.84,55.72 -54.34,171.01 -17.24,147.3 -86.77,507.31 -26.24,576.08 33.46,38 94.32,68.19 161.21,33.67 57.16,-29.49 69.33,-72.43 77.15,-142.76 11.93,-107.24 24.68,-293.86 49.73,-390.2 186.06,-11.04 370.53,78.44 550.33,-9.23 173.73,-84.71 128.74,-251.45 64.09,-436.68 -50.69,-145.23 -150.64,-306.85 -237.19,-389.43 -154.91,-147.81 -405.68,-23.08 -320.35,158.41 39.86,-53.56 62.53,-138.01 158.52,-126.24 81.28,9.98 117.15,98.05 71.76,175.14 -18.75,31.86 -105.53,157.85 -104.95,182.79 0.51,22.65 74.36,146.36 86.9,198.68l-411.76 -31z"/>
  <path class="fil1" d="M1033.08 2649.63c106.09,7.52 176.18,-108.14 125.26,-198.94l-197.01 -311.5c-153.14,-245.69 -107.24,-82.37 44.35,-434.41 -209.24,36.32 -154.53,-1.05 -305.77,4.9 -27.01,73.45 -86.37,151.41 -115.87,224.09 -37.25,91.79 43.7,172.5 79.69,232.6 59.42,99.25 253.62,475.05 369.35,483.26z"/>
  <path class="fil1" d="M4359.87 460.01c-110.7,-33.86 -114.21,26.28 -126.33,-33.92 44.02,-19.43 102.33,-10.3 145.89,5.17l84.77 42.75c15.23,13.13 5.89,0.97 13.37,19.55l-8.41 18.01c-33.26,-7.73 -64.75,-37.93 -109.29,-51.56zm-116.96 -294.14c74.2,-13.49 428.49,2.96 384,121.35 -18,-5.27 -11.65,-12.66 -35.03,-33.93 -14.89,-13.54 -22.85,-17.86 -41.46,-26.07 -119.63,-52.78 -238.93,-50.79 -362.06,-33.37 11.61,-14.08 -8.28,-7 27.93,-21.9 1.42,-0.58 23.92,-5.59 26.62,-6.08zm368.45 140.12c72.93,9.16 102.63,3.97 87.17,-82.35 -47.38,-264.57 -495.15,-306.15 -584.03,-59.11 -24.56,68.28 9.8,65.51 51.83,90.69 -8.53,99.69 -57.13,130.71 8.43,245.56 34.62,60.65 93.9,107.15 177.27,116.82 101.73,11.8 163.11,-33.24 209.49,-82.77 61.37,-65.54 65.13,-131.81 49.84,-228.84z"/>
  <path class="fil1" d="M2765.48 434.55c15.62,-22.76 37.89,-20.2 70.3,-18.41 25.67,1.41 51.08,6.78 72.14,13.46 35.2,11.15 86.06,35.43 104.18,66.33 -43.36,36.63 1.27,9.94 -104.96,-31.34 -64.36,-25 -93.13,-10.94 -114.42,-13.01 -41.95,-4.07 -7.75,6.03 -27.24,-17.03zm-54.64 -236.66c59.08,-82.75 495.09,-30.8 448.63,93.72 -10.88,-9.42 -4.67,-3.58 -13.81,-14.93 -42.05,-52.24 -104.12,-69.32 -178.35,-83.3 -109.36,-20.59 -154.53,-12.59 -256.47,4.51zm433.79 109.53c72.64,5.89 101.57,-0.16 86.82,-81.85 -8.4,-46.54 -28.2,-79.86 -51.9,-109.76 -41.15,-51.92 -112.51,-99.66 -208.94,-112.59 -144.16,-19.34 -283.54,50.45 -322.65,159.02 -27.64,76.71 12.27,68.98 50.69,94.94 -7.91,90.93 -56.01,128.12 6.19,240.49 28.37,51.26 94.36,109.15 175.33,119.4 166.19,21.03 292.38,-99.4 264.46,-309.65z"/>
  <path class="fil2" d="M270.12 1153.88c191.56,68.28 250.22,276.02 362.86,92.27l150.37 -248.13c16.69,-59.44 -22.4,-111.13 -81.41,-110.69 -66.83,0.5 -76.68,47.99 -105.39,93.59 -22.3,35.41 -54.88,82.93 -74.55,120 -25.1,-11.22 -49.9,-32.45 -74.53,-47.86 -274.31,-171.58 -378.78,23.06 -331.19,102.4 54.51,90.88 149.49,0.68 153.84,-1.58z"/>
  <path class="fil2" d="M296.56 746.5c22.83,-60.96 175.59,-117.14 217.25,-100.28 -0.33,38.73 0.44,24.85 -47.55,35.79 -136.39,31.1 -124.22,88 -169.7,64.49zm-178.64 -158.96c8.6,161.13 94.47,272.09 253.98,263.51 104.18,-5.6 187.4,-79.64 214.59,-167.84 9.83,-31.87 18.89,-84.52 -1.62,-114.33 -16.19,29.36 -47.45,55.34 -98.67,39.02 -19.97,-6.37 -28.99,-17.1 -37.83,-29.77 -6.21,-8.9 -9.61,-17.46 -12.83,-21.2 -15.31,-17.75 1.91,-7.55 -21.48,-14.78 -35.27,22.29 -5.64,27.6 -29.3,66.24 -9.02,14.74 -30.18,28.33 -55.87,31.69 -73.53,9.64 -74.14,-35.31 -101.21,-70.39l-109.76 17.85z"/>
  <path class="fil3" d="M3140.39 678.6c-1.88,3.84 -402.69,651.33 -490.37,731.9 -20.46,37.82 -55,62.16 -43.74,108.89 54.25,5.71 64.07,-41.77 130.85,-133.96l253.8 -380.36c25.07,-34.66 52.06,-75.74 75.2,-111.36 30.64,-47.18 133.76,-177.04 127.04,-221.36 -32.33,-9.71 -25.48,-14.97 -52.78,6.25z"/>
  <path class="fil4" d="M4623.73 679.15c-49.11,86.72 -207.24,310.29 -274.86,413.84 -39,59.73 -263.72,371.05 -265.01,414.51 5.19,5 12.32,11.28 16.28,15.22 39.23,-3.11 65.95,-62.31 86.38,-92.69l357.39 -531.84c29.53,-43.95 133.9,-174.91 131.13,-225.89 -26.77,-10.12 -32.94,-14.86 -51.31,6.85z"/>
  <path class="fil2" d="M233.78 542.66c19.35,-50.56 69.44,-93.12 129.88,-49.39 96.52,69.84 39.23,-18.72 131.23,-41.49l39.72 2.18c-20.78,-30.29 -65.46,-60.46 -116.61,-73.67 -124.07,-32.04 -257.97,52.14 -300.08,180.96 17.83,17.04 91.89,-15.37 115.86,-18.59z"/>
  <path class="fil3" d="M299.31 501.06c76.18,-31.7 103.37,91.5 41.86,115.09 -76.91,29.49 -131.22,-77.9 -41.86,-115.09zm188.59 -27.91c81.3,-38.07 124.58,87.84 45.66,115.14 -76.99,26.62 -115.05,-82.63 -45.66,-115.14zm-418.34 92.51c-9.44,1.18 -32.01,3.84 -42.13,6.6 -90.71,44.19 70.98,17.02 90.49,15.28l109.76 -17.85c27.07,35.08 27.68,80.03 101.21,70.39 25.69,-3.36 46.85,-16.95 55.87,-31.69 23.66,-38.64 -5.97,-43.95 29.3,-66.24 23.39,7.23 6.17,-2.97 21.48,14.78 3.22,3.74 6.62,12.3 12.83,21.2 8.84,12.67 17.86,23.4 37.83,29.77 51.22,16.32 82.48,-9.66 98.67,-39.02 38.06,-57.02 -12.65,-126.79 -89.98,-117.1 -92,22.77 -34.71,111.33 -131.23,41.49 -60.44,-43.73 -110.53,-1.17 -129.88,49.39 -55.43,7.45 -108.63,16.05 -164.22,23z"/>
  <path class="fil2" d="M487.9 473.15c-69.39,32.51 -31.33,141.76 45.66,115.14 78.92,-27.3 35.64,-153.21 -45.66,-115.14z"/>
  <path class="fil2" d="M299.31 501.06c-89.36,37.19 -35.05,144.58 41.86,115.09 61.51,-23.59 34.32,-146.79 -41.86,-115.09z"/>
  <path class="fil3" d="M2710.84 197.89c101.94,-17.1 147.11,-25.1 256.47,-4.51 74.23,13.98 136.3,31.06 178.35,83.3 9.14,11.35 2.93,5.51 13.81,14.93 46.46,-124.52 -389.55,-176.47 -448.63,-93.72z"/>
  <path class="fil3" d="M4188.36 193.85c123.13,-17.42 242.43,-19.41 362.06,33.37 18.61,8.21 26.57,12.53 41.46,26.07 23.38,21.27 17.03,28.66 35.03,33.93 44.49,-118.39 -309.8,-134.84 -384,-121.35 -2.7,0.49 -25.2,5.5 -26.62,6.08 -36.21,14.9 -16.32,7.82 -27.93,21.9z"/>
  <path class="fil3" d="M4233.54 426.09c12.12,60.2 15.63,0.06 126.33,33.92 44.54,13.63 76.03,43.83 109.29,51.56l8.41 -18.01c-7.48,-18.58 1.86,-6.42 -13.37,-19.55l-84.77 -42.75c-43.56,-15.47 -101.87,-24.6 -145.89,-5.17z"/>
  <path class="fil3" d="M2835.78 416.14c-32.41,-1.79 -54.68,-4.35 -70.3,18.41 19.49,23.06 -14.71,12.96 27.24,17.03 21.29,2.07 50.06,-11.99 114.42,13.01 106.23,41.28 61.6,67.97 104.96,31.34 -18.12,-30.9 -68.98,-55.18 -104.18,-66.33 -21.06,-6.68 -46.47,-12.05 -72.14,-13.46z"/>
  <path class="fil3" d="M296.56 746.5c45.48,23.51 33.31,-33.39 169.7,-64.49 47.99,-10.94 47.22,2.94 47.55,-35.79 -41.66,-16.86 -194.42,39.32 -217.25,100.28z"/>
  <g id="_2644444127056">
   <path class="fil5" d="M2970.29 53.1l-43.3 -25 -43.29 25 43.29 25 43.3 -25zm0 0z"/>
   <path class="fil5" d="M2930.13 133.56l43.31 -25 0 -50.02 -43.31 25 0 50.02zm0 0z"/>
   <path class="fil5" d="M2880.54 58.54l0 50.02 43.31 25 0 -50.02 -43.31 -25zm0 0z"/>
  </g>
  <g id="_2644444127216">
   <path class="fil5" d="M4454.37 49.88l-43.3 -25 -43.29 25 43.29 25 43.3 -25zm0 0z"/>
   <path class="fil5" d="M4414.21 130.34l43.31 -25 0 -50.02 -43.31 25 0 50.02zm0 0z"/>
   <path class="fil5" d="M4364.62 55.32l0 50.02 43.31 25 0 -50.02 -43.31 -25zm0 0z"/>
  </g>
 </g>
</svg>
