<?xml version="1.0" encoding="UTF-8"?>
<!DOCTYPE svg PUBLIC "-//W3C//DTD SVG 1.1//EN" "http://www.w3.org/Graphics/SVG/1.1/DTD/svg11.dtd">
<!-- Creator: CorelDRAW -->
<svg xmlns="http://www.w3.org/2000/svg" xml:space="preserve" width="574px" height="683px" version="1.1" style="shape-rendering:geometricPrecision; text-rendering:geometricPrecision; image-rendering:optimizeQuality; fill-rule:evenodd; clip-rule:evenodd"
viewBox="0 0 202.52 240.93"
 xmlns:xlink="http://www.w3.org/1999/xlink"
 xmlns:xodm="http://www.corel.com/coreldraw/odm/2003">
 <defs>
  <style type="text/css">
   <![CDATA[
    .fil0 {fill:black}
    .fil1 {fill:#020202}
    .fil2 {fill:#030303}
    .fil3 {fill:#0C0C0C}
    .fil4 {fill:black;fill-opacity:0.250980}
   ]]>
  </style>
 </defs>
 <g id="Camada_x0020_1">
  <metadata id="CorelCorpID_0Corel-Layer"/>
  <path class="fil0" d="M99.23 53.91c-2.98,-3.47 -3.75,-6.03 -9.42,-9.21 -2.89,-1.62 -9.98,-4.67 -14.39,-4.1 -0.31,3.64 -2.44,11.3 -2.13,13.95 5.05,0.27 9.98,1.72 12.94,5.72l1.74 2.81c0.47,0.65 0.32,0.17 0.84,1.16 -2.92,0.17 -15.51,-2.28 -21.11,-0.69 -0.03,0.1 -0.07,0.15 -0.08,0.32 0,0.17 -0.06,0.23 -0.06,0.32 -0.17,1.61 1.19,11.37 1.31,13.42 8.48,-0.37 14.3,-0.15 21.57,2.11 8.27,2.56 5.39,4.8 18.1,-1.05 7.93,-3.64 16.18,-7.74 23.06,-12.96 2.51,-1.9 4.44,-3.84 6.52,-5.41 2.68,1.05 6.62,5.14 15.39,1.63 4.3,-1.73 8.08,-4.57 11.54,-7.92 3.39,-3.28 6.33,-6.55 9.09,-10.31 1.55,-2.11 7.53,-9.69 7.69,-12.04 0.19,-2.85 -1.8,-4.96 -4.54,-4.97 -3.02,-0.01 -3.94,2.2 -5.44,4.48 -3.98,6.06 -17.42,24.52 -25.77,22.88 -3.21,-0.62 -3.47,-2.98 -4.51,-5.42 -4.72,-0.96 -5.39,1.66 -9.06,1.28 -3.98,-0.4 -7.36,-4.53 -7.23,-8.34 0.36,-10.2 -1.17,-8.91 -2.19,-13.54 -2.9,-13.18 7.97,-19.03 8.75,-22.17 0.84,-3.41 -1.64,-6.19 -4.87,-5.83 -4.8,0.55 -15.89,14.73 -13.09,28.8 0.7,3.49 2.28,4.91 0.91,8.07 -3.22,7.39 -7.36,14.15 -15.56,17.01z"/>
  <path class="fil1" d="M80.77 192.8l13.91 0.17 -0.02 -14.85c-0.03,-2.45 -0.09,-2.87 2.63,-2.25l0.07 17.11 13.98 0c0.02,-7.27 -0.36,-53.03 0,-56.5 0.17,-1.65 1.16,-1.93 2.69,-3.59 6.45,-7.01 10.42,-15.82 12.68,-25.38 1.06,-4.47 3.49,-19.04 0.07,-22.15 -2.66,-2.43 -7.18,-0.48 -7.53,2.82 -1.14,10.96 0.92,17.73 -6.73,31.18 -1.63,2.86 -3.22,5.07 -5.31,7.4 -1.6,1.79 -2.55,1.22 -5.09,1.21l-12.36 0c-2.81,0.02 -3.4,0.5 -5.01,-1.26 -2.05,-2.23 -3.89,-4.78 -5.32,-7.39 -2.79,-5.11 -5.52,-12.34 -6.2,-19.16 -0.36,-3.66 -0.12,-8.64 -0.56,-11.88 -0.72,-5.27 -8.94,-5.96 -9.11,1.26 -0.76,31.87 16.5,44.76 16.93,46.33 0.25,0.9 0.1,5.05 0.1,6.28 0,16.9 0.07,33.81 0.18,50.65z"/>
  <path class="fil0" d="M32.59 193.37l14.05 -2.44c-1.72,-18.57 -8.19,-20.22 -3.61,-41.2 0.47,-2.13 2.67,-12.08 2.26,-13.08 -1.36,0.7 -2.28,2.97 -5.55,5.24 -6.05,4.21 -12.34,-3.77 -7.37,-8.78 2,-2.02 4.1,-3.25 5.39,-6.39 -7.71,0.12 -11.18,4.49 -13.38,10.74 -3.27,9.29 -7.06,32.8 1.67,38.74 3,2.05 3.27,-0.69 4.81,6.86 0.5,2.47 1.08,8.47 1.73,10.31z"/>
  <path class="fil0" d="M146.7 136.75c0.07,3.93 1.54,9.68 2.33,13.49 0.89,4.24 1.49,9.76 1.44,14.5 -0.05,5.49 -1.53,8.15 -2.77,12.73 -1.06,3.91 -1.91,9.08 -2.4,13.32l14.19 2.77c0.19,-2.74 1.68,-12.43 2.73,-14.98 1.37,-3.31 8.97,1.38 8.93,-20.9 -0.01,-7.89 -1.56,-13.79 -3.61,-20.21 -1.99,-6.22 -5.79,-10.57 -13.24,-10.9 0.43,4.46 10.61,7.61 6.01,14.09 -1.6,2.25 -4.72,3.19 -7.49,1.63 -2.9,-1.64 -4.36,-4.34 -6.12,-5.54z"/>
  <path class="fil0" d="M159.28 195.82l-13.96 -2.65c-1.8,9.02 1.18,25.27 4.19,34.32 3.47,10.45 12.34,7.04 14.16,2.03 1.21,-3.34 -0.85,-6.96 -1.74,-10.25 -1.06,-3.88 -1.54,-6.68 -2.13,-11.01 -0.57,-4.16 -0.29,-8.09 -0.52,-12.44z"/>
  <path class="fil0" d="M94.64 195.24l-14 -0.11c-0.13,3.16 -0.49,31.89 0.33,34.14 0.97,2.64 3.43,4.78 6.72,4.8 2.78,0.03 5.66,-2.1 6.53,-4.53 0.94,-2.67 0.59,-30.9 0.42,-34.3z"/>
  <path class="fil0" d="M111.3 195.13l-14 0.03c-0.12,3.08 -0.35,31.48 0.26,33.8 1.61,6.12 10.93,7.06 13.4,0.44 0.85,-2.29 0.45,-30.92 0.34,-34.27z"/>
  <path class="fil2" d="M57.66 101.12c0.68,-4.83 2.91,-14.71 -4.22,-14 -3.17,0.31 -3.96,2.77 -4.14,5.96 -0.74,12.97 -4.97,28.19 -12.53,37.36 -0.9,1.09 -4.31,4 -4.71,5.15 -1.16,3.31 2.1,10.54 9.69,3.01 9.75,-9.66 14.04,-24.23 15.91,-37.48z"/>
  <path class="fil0" d="M136.7 21.99c-6.42,1.24 -11.79,7.37 -10.37,14.86 3.04,15.94 27.99,12.95 25.21,-4.83 -0.95,-6.08 -7.46,-11.45 -14.84,-10.03z"/>
  <path class="fil0" d="M93.21 99.61c-17.1,4.45 -10.31,28.38 5.47,24.94 6.24,-1.36 11.28,-7.38 9.83,-15.18 -1.15,-6.15 -7.76,-11.72 -15.3,-9.76z"/>
  <path class="fil0" d="M66.55 77.99l-1.36 -14.02c-4.72,-1.05 -22.53,5.26 -28.36,7.95 -2.85,1.31 -5.22,3.21 -4.99,7.41 0.19,3.48 2.73,5.94 5.79,6.53 4.48,0.86 14,-6.55 28.92,-7.87z"/>
  <path class="fil0" d="M30.91 99.15c-16.2,5.53 -8.37,28.08 6.39,24.7 3.75,-0.85 3.6,-1.69 5.66,-6.67 1.26,-3.05 2.22,-6.37 2.93,-9.48 0.77,-3.36 -1.92,-5.8 -4.61,-7.42 -2.89,-1.73 -6.76,-2.36 -10.37,-1.13z"/>
  <path class="fil3" d="M46.6 193.12c-3.17,0.53 -11.42,1.82 -13.95,2.74 -0.48,12.55 -0.55,17.47 -4.18,28.3 -1.05,3.13 -0.32,6.1 2.11,8.23l2.64 1.55c12.93,5.23 14.71,-34.82 13.38,-40.82z"/>
  <path class="fil0" d="M70.71 54.29l2.65 -13.97c-7.76,0.15 -11.81,0.66 -18.58,2.25 -4.91,1.16 -11.92,2.4 -12.65,8.22 -0.62,4.94 3.29,9.75 11.28,7.02 2.52,-0.86 5.28,-1.55 8.01,-2.17 2.4,-0.56 7.76,-0.81 9.29,-1.35z"/>
  <path class="fil0" d="M160.91 99.19c16.2,5.53 8.37,28.08 -6.4,24.7 -3.75,-0.85 -3.59,-1.69 -5.66,-6.67 -1.26,-3.05 -2.22,-6.37 -2.93,-9.48 -0.76,-3.36 1.92,-5.8 4.62,-7.42 2.89,-1.73 6.76,-2.36 10.37,-1.13z"/>
  <path class="fil2" d="M134.31 101.11c-0.68,-4.83 -2.91,-14.71 4.21,-14 3.18,0.31 3.96,2.77 4.14,5.96 0.74,12.97 4.97,28.19 12.54,37.36 0.9,1.09 4.31,4 4.71,5.15 1.15,3.31 -2.1,10.54 -9.69,3.01 -9.75,-9.66 -14.05,-24.23 -15.91,-37.48z"/>
  <path class="fil4" d="M101.26 225.87c55.92,0 101.26,3.38 101.26,7.53 0,4.16 -45.34,7.53 -101.26,7.53 -55.92,0 -101.26,-3.37 -101.26,-7.53 0,-4.15 45.34,-7.53 101.26,-7.53z"/>
 </g>
</svg>
