<?xml version="1.0" encoding="UTF-8"?>
<!DOCTYPE svg PUBLIC "-//W3C//DTD SVG 1.1//EN" "http://www.w3.org/Graphics/SVG/1.1/DTD/svg11.dtd">
<!-- Creator: CorelDRAW 2018 (64 Bit Versão de avaliação) -->
<svg xmlns="http://www.w3.org/2000/svg" xml:space="preserve" width="30.8998mm" height="27.3472mm" version="1.1" style="shape-rendering:geometricPrecision; text-rendering:geometricPrecision; image-rendering:optimizeQuality; fill-rule:evenodd; clip-rule:evenodd"
viewBox="0 0 3449.74 3053.12"
 xmlns:xlink="http://www.w3.org/1999/xlink">
 <defs>
  <style type="text/css">
   <![CDATA[
    .fil1 {fill:#020202}
    .fil0 {fill:#040405}
    .fil3 {fill:#09070A}
    .fil7 {fill:#F6F9F4}
    .fil4 {fill:#F7EFF0}
    .fil5 {fill:#F9FCFC}
    .fil2 {fill:#FEE8B9}
    .fil6 {fill:white}
    .fil8 {fill:black;fill-opacity:0.250980}
   ]]>
  </style>
 </defs>
 <g id="Camada_x0020_1">
  <metadata id="CorelCorpID_0Corel-Layer"/>
  <g id="_2644454832688">
   <path class="fil0" d="M224.68 2902.89c36.26,77.47 140.28,110.36 261.08,-0.7 73.17,-67.28 17.76,-488.09 41.27,-630.8 6.87,-41.64 232.92,-264.01 283.32,-329.48 -3.42,44.81 -73.15,173.11 -90.82,225.14 -29.6,87.14 27.6,172.14 61.64,243.19 36.65,76.49 66.77,147.77 102.43,222.74 50.51,106.17 119.37,340.4 246.84,349.89 337.12,25.15 -1.94,-540.07 -52.45,-649.68 -37.47,-81.28 -64.46,-87.87 -28.52,-171.19 51.62,-119.68 98.81,-229.54 151.19,-347.51 88.53,-199.42 74.14,-165.98 13.64,-386.73l-608.48 232.7c9.67,87.68 -15.35,72.39 -64.75,126.73l-199.66 222.11c-29.13,35.2 -74.07,75.68 -95.29,114.98 -39.97,74.05 -77.44,658.97 -21.44,778.63z"/>
   <path class="fil1" d="M2222.92 2165.77c241.52,37.08 323.03,61.56 584.42,33.56l84.49 -25.78 -20.8 -723.38c-75.04,-60.04 -194.63,-149.04 -307.48,-181.27 -118.11,-33.73 -315.16,1.46 -416.13,46.44 -38.25,17.04 -274.37,646.7 -280.47,688.31 45.29,19.52 110.52,65.85 173.46,95.12 55.51,25.8 145.43,46.33 182.5,67z"/>
   <path class="fil0" d="M392.64 1180.62c-5.43,-10.66 -3.64,-2.52 -5.83,-22.08 -9.27,-83.06 90.85,-308.63 -52.14,-327.14 -130.54,-16.91 -122.06,144.61 -143.93,318.57 -13.92,110.81 -85.4,347.18 86.49,320.07 68.3,-10.77 128.36,-153.8 208.36,-252.15l50.98 202.22c55.11,-8.41 431.02,-156.1 470.81,-183.74 -10.22,-41.35 -24.65,-79.74 -38.24,-116.05 -14.02,-37.5 -37.84,-77.08 -20.72,-110.14 27.43,26.5 86.33,204.55 93,245.36 -76.52,43.57 -248.09,98.28 -334.94,131.33 -38.44,14.63 -132.35,46.53 -165.11,65.46 -78.83,45.54 -87.76,243.57 149.21,148.98 654.25,-261.13 622.92,-161.11 503.77,-505.84 -23.27,-67.31 -96.1,-298.93 -132.91,-326.72 -36.6,-27.64 -141.59,-15.15 -180.7,7.65 -23.28,13.58 -27.48,45.54 -41.91,72.27 -14.15,26.18 -33.56,44.95 -52.06,63.41 -127.78,127.45 -258.27,71.5 -349.34,50.54 -4.04,39.95 -10.37,78.5 -15.32,120.54 -13.73,116.52 -5.85,84.85 -29.46,97.48z"/>
   <path class="fil0" d="M2348.9 1235.65c-36.11,-62.24 -56.98,-68.49 -18.96,-155.33l-72.33 9.96c50.92,-29.02 23.28,-33.43 112.32,-42.63 129.94,-13.43 344.72,20.44 414.6,93.85 15.19,-19.22 -0.03,-30.32 22.86,-40.02 22.34,25.3 24.67,56.16 33.98,93.44 -29.02,-6.33 -66.33,-35.03 -95.95,-49.7 -91.29,-45.24 -301.78,-114.04 -377.97,-61.38 -26.04,18.01 -44.1,70.01 -16.57,110.31 50.41,73.77 184.52,-34.53 444.86,169 24.82,19.39 60.33,49.22 88.96,63.94 110.46,56.76 149.14,-38.78 134.52,-135.36 -10.47,-69.08 -20.56,-55.91 -66.19,-85.85 -37.82,-24.84 -49.28,-44.74 -73.53,-80.29 -47.93,-70.29 -67.76,-126.29 -87.2,-217.95 -110.75,24.08 -193.19,58.12 -319.93,-45.43 -32.6,-26.63 -37.8,-49.74 -67.44,-78.81 -231.06,8.18 -390.76,380.48 -393.48,415.4 -4.04,51.75 26.49,88.61 68.38,95.09 59.44,9.18 194.19,-48.23 269.07,-58.24z"/>
   <path class="fil0" d="M2715.05 726.46l1.25 25.96c-2.34,0.73 -5.67,1.63 -7.18,1.66 -1.43,0.02 -5.16,1.02 -6.88,0.89 -1.71,-0.12 -4.97,-0.08 -6.81,-0.42l-31.37 -16.4c-139.61,-78.98 -148.7,4.18 -153.99,-80.3 60.38,1.7 184.88,40.49 204.98,68.62zm-120.35 -326.99c-335.61,98.15 -188.78,588.3 141.05,497.18 114.38,-31.59 216.33,-160.21 177.56,-312.24 -31.13,-122.03 -158.93,-231.63 -318.61,-184.94z"/>
   <path class="fil0" d="M2098.29 2954.32c175.71,-14.89 177.52,-618.88 192.97,-739.66l-80.43 -20.46 -151.41 -47.66c-10.74,120.11 -33.24,242.34 -50.06,362.2 -17.41,124.11 -117.73,463.07 88.92,445.58z"/>
   <path class="fil0" d="M2750.15 2955.95c182.5,-12.93 88.29,-308.69 79.2,-409 -7.38,-81.34 -33.25,-244.36 -26.74,-313.74l-243.19 17.39c5.88,103.76 19.47,221.13 30.32,326.06 13.04,125.97 -27.85,392.63 160.41,379.28z"/>
   <path class="fil0" d="M313.87 657.63c-10.87,190.73 40,116.24 97.99,185.57 38.77,46.38 -0.16,122.39 172.44,122.48 125.94,0.08 220.92,-81.71 254.89,-183.69l11.13 -106.66c-0.5,-2.03 -1.98,-5.33 -2.44,-6.91 -0.44,-1.54 -1.52,-4.51 -2.68,-6.58 -57.17,27.97 -105.25,26.56 -137.32,-28.42 -29,-49.73 9.5,-25.35 -37.36,-33.29 -39.25,37.71 -9.53,96.33 -87.38,109.85 -65.42,11.35 -99.98,-28.38 -111.23,-80.45l-158.04 28.1z"/>
   <path class="fil0" d="M2819.63 891.41c16.4,178.89 142.53,351.24 314.27,353.75 64.42,0.95 137.28,-28.51 141.53,-81.51 -229.75,63.48 -214.04,-296.01 -353.06,-386.07 -19.53,20.83 -29.66,41.29 -44.76,59.58 -20.59,24.95 -32.48,27.93 -57.99,54.25z"/>
   <path class="fil2" d="M3138.27 383.38c16.08,-24.78 15.74,-13.72 15.11,-32.52l-37.26 -0.55c-55.9,-4.58 -14.94,3.85 -36.03,-14.67 -1.23,-41.6 6.01,-74.29 25.23,-95.32 7.81,-4.97 16.42,-8.74 25.56,-12.27 51.56,-8.23 79.46,-11.62 98,21.39l8.88 20.1c95.45,-41.42 151.81,11.96 156.58,72.51 0.09,35.46 -22.16,73.23 -78.78,98.99l8.8 19.75c11.85,35.37 -9.43,53.69 -50.16,86.28 -15.72,7.93 -30.95,14.08 -48.42,13.69 -21.68,-6.14 -43.78,-21.12 -66.45,-43.09 0.25,-28.42 -20.81,7.98 13.08,-36.98l24.46 -28.22c-13.61,-13.34 -5.14,-6.02 -34.37,-10.93 -46.76,41.06 -142.43,45.71 -198.41,87.16 37.2,12.82 98.6,-9.28 136.87,-26.54 12.24,15.54 22.64,31.38 33.82,45.84l2.08 8.02c3.54,2.3 6.97,4.6 10.34,6.88 17.03,18.69 37.39,33.36 68.37,39.25 144.39,27.48 125.07,-98.54 180.95,-165 10.43,-6.6 21.57,-13.88 28.17,-20.77 7.96,-8.31 17.73,-31.64 21.63,-59.64 5.62,-21.89 3.95,-41.83 -2.32,-59.55 -7.23,-29.15 -25.07,-56.15 -60.8,-71.14 -21.92,-14.09 -43.41,-21.56 -54.12,-21.31 -11.07,0.25 -26.62,4.73 -39.89,8.42 -82.77,-8.86 -159.44,-94.27 -233.44,25.49 -7.38,11.95 -12.04,23.49 -14.71,34.82 -4.29,16.14 -5.74,32.87 -8.52,51.21l9.86 15c3.05,15.84 7.02,32.05 9.89,49.17 -38.45,16.84 -96.04,47.56 -111.62,83.39 68.19,-13.98 135.97,-81.43 197.65,-88.86z"/>
   <path class="fil3" d="M329.41 619.08c35.95,-10.9 92.66,-12.41 139.01,-18.74 78.64,-158.63 158.88,-22.86 202.34,-28.87 56.67,-19.79 15.82,-48.67 88.34,-72.71 -238.69,-154.35 -398.71,-5.06 -429.69,120.33z"/>
   <path class="fil4" d="M496.68 642.27c-29.54,-99.71 114.23,-123.05 133.48,-44.86 24.93,101.33 -110.46,122.61 -133.48,44.86zm222.19 -38.33c-20.16,-98.09 115.75,-120.16 134.94,-36.64 23.6,102.67 -118.41,117.06 -134.94,36.64zm40.24 -105.19c-72.52,24.05 -31.67,52.92 -88.34,72.71 -43.46,6.01 -123.7,-129.76 -202.34,28.87 -46.34,6.33 -103.06,7.85 -139.01,18.74l-92.46 9.76c-62.32,77.45 201.69,6.61 234.96,0.69 11.25,52.07 45.81,91.8 111.23,80.45 77.85,-13.52 48.13,-72.13 87.38,-109.85 46.86,7.94 8.35,-16.43 37.36,33.29 32.07,54.98 80.15,56.39 137.32,28.42 73.19,-91.04 11.99,-196.18 -86.1,-163.1z"/>
   <path class="fil5" d="M504.38 845.86c79.19,-28.81 176.86,-43.46 257.36,-36.91 13.42,-103.22 -262.47,-111.96 -257.36,36.91z"/>
   <path class="fil0" d="M718.87 603.94c16.53,80.42 158.54,66.03 134.94,-36.64 -19.19,-83.52 -155.11,-61.45 -134.94,36.64z"/>
   <path class="fil0" d="M496.68 642.27c23.02,77.75 158.41,56.47 133.48,-44.86 -19.25,-78.19 -163.02,-54.85 -133.48,44.86z"/>
   <path class="fil6" d="M2209.55 124.83c0.74,1.66 -11.31,33.81 70.92,31.64 62.02,-1.63 94.23,-33.63 110.92,-85.53 1.33,-4.14 9.82,-34.78 10.2,-37.79 4.93,-40.85 -1.51,-23.86 -6.25,-33.15 -30.48,16.22 -17.29,12.1 -28.25,49.36 -27.5,93.48 -81.79,77.76 -122.25,71.42 -33.56,-5.27 -16.09,-5.64 -35.29,4.05z"/>
   <path class="fil7" d="M2716.3 752.42l-1.25 -25.96c-20.1,-28.12 -144.6,-66.92 -204.98,-68.62 5.29,84.48 14.38,1.33 153.99,80.3l31.37 16.4c1.84,0.35 5.1,0.3 6.81,0.42 1.72,0.12 5.45,-0.87 6.88,-0.89 1.51,-0.03 4.83,-0.94 7.18,-1.66z"/>
   <path class="fil6" d="M2337.84 414.31c28.36,-38.58 12.93,-83.41 50.22,-115 39.5,-33.47 92.13,-7.06 131.39,0.9 -4.87,-40.64 -3.14,-31.49 -54.31,-42.31 -124.84,-26.38 -144.33,115.89 -140.12,133.94 4.77,20.42 4.91,12.58 12.83,22.47z"/>
   <path class="fil6" d="M2442.59 50.22c-1.64,0.78 -34.08,-10.42 -29.76,71.72 3.28,61.96 36.12,93.31 88.44,108.63 4.18,1.22 35.01,8.91 38.04,9.2 40.96,3.86 23.81,-2.13 32.98,-7.11 -17.03,-30.04 -12.56,-16.97 -50.09,-26.94 -94.17,-25.02 -79.88,-79.71 -74.61,-120.32 4.39,-33.69 5.2,-16.24 -4.99,-35.18z"/>
   <path class="fil6" d="M2156.6 186.1c39.31,27.32 83.71,10.72 116.28,47.17 34.5,38.59 9.48,91.9 2.57,131.36 40.49,-5.94 31.39,-3.96 40.86,-55.41 23.09,-125.49 -119.65,-141.23 -137.59,-136.55 -20.29,5.3 -12.44,5.25 -22.12,13.43z"/>
   <path class="fil8" d="M2372.62 2884.61c396.9,0 718.67,35.89 718.67,80.16 0,44.27 -321.77,80.16 -718.67,80.16 -396.91,0 -718.68,-35.89 -718.68,-80.16 0,-44.27 321.77,-80.16 718.68,-80.16z"/>
   <path class="fil8" d="M718.67 2892.8c396.91,0 718.68,35.89 718.68,80.16 0,44.27 -321.77,80.16 -718.68,80.16 -396.9,0 -718.67,-35.89 -718.67,-80.16 0,-44.27 321.77,-80.16 718.67,-80.16z"/>
   <path class="fil6" d="M1001.35 654.53c46.33,12.06 82.26,-18.87 125.42,4.07 45.71,24.3 40.65,82.97 47.79,122.39 35.95,-19.57 28.1,-14.58 19.2,-66.13 -21.7,-125.73 -161.09,-91.18 -176.31,-80.58 -17.19,11.99 -9.86,9.22 -16.11,20.24z"/>
   <path class="fil6" d="M995.54 696.3c35.58,9.26 63.17,-14.49 96.3,3.13 35.1,18.67 31.22,63.71 36.71,93.98 27.6,-15.03 21.57,-11.19 14.74,-50.78 -16.66,-96.54 -123.69,-70.01 -135.37,-61.87 -13.21,9.2 -7.58,7.08 -12.38,15.54z"/>
   <path class="fil5" d="M2523.53 566.99c33.21,3.36 54.06,6.33 88.14,12.65 -19.4,60.12 -97.23,42.83 -88.14,-12.65z"/>
   <path class="fil5" d="M2659.63 589.34c33.28,-2.63 54.31,-3.44 88.98,-3.33 -8.33,62.63 -88,59.53 -88.98,3.33z"/>
  </g>
 </g>
</svg>
