<?xml version="1.0" encoding="UTF-8"?>
<!DOCTYPE svg PUBLIC "-//W3C//DTD SVG 1.1//EN" "http://www.w3.org/Graphics/SVG/1.1/DTD/svg11.dtd">
<!-- Creator: CorelDRAW 2018 (64 Bit Versão de avaliação) -->
<svg xmlns="http://www.w3.org/2000/svg" xml:space="preserve" width="34.8122mm" height="27.628mm" version="1.1" style="shape-rendering:geometricPrecision; text-rendering:geometricPrecision; image-rendering:optimizeQuality; fill-rule:evenodd; clip-rule:evenodd"
viewBox="0 0 3481.22 2762.8"
 xmlns:xlink="http://www.w3.org/1999/xlink">
 <defs>
  <style type="text/css">
   <![CDATA[
    .fil0 {fill:#040404}
    .fil7 {fill:#080A09}
    .fil3 {fill:#0A010B}
    .fil2 {fill:#F7EFF1}
    .fil6 {fill:#F7F4F4}
    .fil5 {fill:#FBFBFB}
    .fil8 {fill:#FCE895}
    .fil9 {fill:#FDE9B8}
    .fil4 {fill:#FEE6A8}
    .fil1 {fill:#FEE8B9}
    .fil11 {fill:white}
    .fil10 {fill:black;fill-opacity:0.250980}
   ]]>
  </style>
 </defs>
 <g id="Camada_x0020_1">
  <metadata id="CorelCorpID_0Corel-Layer"/>
  <path class="fil0" d="M1624.93 1487.56c-60.59,23.73 -116.53,33.55 -147.08,82.88 -50.76,81.92 -7.62,254.43 193.1,176.62 108.21,-41.94 222.64,-85.52 332.46,-128.28 55.81,-21.74 108.91,-43.04 166.1,-64.56 88.17,-33.18 75.5,-45.1 171.27,-15.31 116.19,36.14 234.19,73.48 349.49,110.87 111.21,36.06 271.87,117.81 340.05,8.62 46.27,-74.08 -31.2,-289.76 -54.16,-375.77 -31.4,-117.66 -74.26,-252.43 -95.68,-367.99l197.78 -130.83c48.88,23.04 248.58,252.37 293.27,267.4 57.25,19.24 105.55,-20.94 109.52,-69.67 4.85,-59.4 -98.17,-136.88 -167.36,-209.6 -29.28,-30.76 -163.41,-171.22 -202.78,-178.23 -76.82,-13.68 -279.05,172.51 -360.66,208.49 -36.46,16.08 -38.81,0.85 -59.97,30.02 -14.78,20.4 -20.14,39.48 -38.94,59.97 -55.52,60.44 -177.91,109.36 -290.38,58.94 -65.85,-29.53 -52.17,-56.73 -129.42,-60.63 -58.67,-2.98 -121.74,-1.37 -179.21,-9.9l-132.98 -294.78c-29.63,-51.63 -102.45,-60.54 -140,-5.7 -40.3,58.85 49.86,205.71 92.52,300.74 92.19,205.42 18.8,158.83 462.16,180.38l57.33 197.12c67.72,23.02 133.96,44.19 205.54,65.87 34.06,10.31 187.43,46.39 200.78,77.78 -22.37,12.43 -77.14,-13.76 -100.86,-21.58l-318.84 -101.45c-110.32,-36.09 -119.44,-39.48 -225.06,4.16 -390.72,161.38 -206.9,78.61 -527.99,204.42z"/>
  <path class="fil0" d="M500.1 883.13c23.93,-23.8 121.49,-111.88 149.66,-124.45 82.46,-36.77 156.86,36.3 146.21,113.97 -5.81,42.34 -30.49,63 -55.9,83.59 -89.22,79.73 -196.9,166 -281.33,248.75 -12.34,12.1 -15.66,31.25 -12.11,106.45 3.64,77.07 18.04,148.89 22.54,222.74 -28.23,13.42 -144.64,114.26 -178.05,141.91 -64.07,53.04 -141.74,94.16 -118.85,189.24 20.93,86.97 104.7,94.7 193.02,126.66l484.22 165.73c100.32,21.4 186.22,-61.84 147.77,-164.3 -28.02,-74.67 -115.26,-84.58 -204.17,-116.53 -53.57,-19.25 -207.55,-63.07 -241,-88.09 54.59,-68.92 253.31,-178.25 270.55,-256.62 15.56,-70.7 -22.05,-221.28 31,-504.29 12.34,-65.85 39.95,-161.98 35.85,-226.83 -4.55,-71.71 -41.35,-142.59 -111.2,-158.64 -144.67,-33.23 -276.81,122.25 -278.21,240.71z"/>
  <path class="fil0" d="M2896.87 2593.06c1.31,-36.91 -148.21,-345.43 -212.53,-467.95 -19.2,-36.6 -33.04,-48.39 -19.46,-99.44 9.66,-36.34 22.22,-74.76 31.87,-108.36 18,-62.66 53.99,-158.57 60.59,-219.03l-270.25 -87.84c19.56,97.73 -19.48,165.59 -54.78,289.38 -71.19,249.75 -66.62,167.11 110.24,507.38 53,101.97 86.61,219.34 154.06,261.9 64.14,40.45 189.03,1 200.26,-76.04z"/>
  <path class="fil0" d="M2557.41 825.94c-31.51,32.74 -18.37,4.55 -95.15,-25.38 -48.25,-18.81 -110.47,-7.7 -142.72,-18.46 4.19,-18.41 -20.33,-33.35 59.53,-30.56 25.46,0.89 48.24,4.42 71.29,11.25 44.87,13.31 88.98,36.03 107.05,63.15zm-291.13 -282.86c29.3,-59.66 197.97,-41.65 260.5,-30.72 38.45,6.73 88.06,20.81 121.58,35.98 42.34,19.18 69.74,37.83 53.85,83.34l-9.86 -10.31c-23.09,-27.78 -11.27,-28.58 -76.2,-57.12 -90.27,-39.69 -260.25,-59.26 -349.87,-21.17zm-12.21 54.3c-1.43,36.6 -22.9,71.28 -23.41,113.32 -4.16,340.41 541.79,305.54 455.69,-64.08 62.53,0.13 94.23,10.86 87.34,-66.07 -9.81,-109.58 -118.28,-210.16 -248.45,-229.84 -138.53,-20.95 -271.64,41.01 -317.73,147.7 -34.31,79.41 8.29,72.28 46.56,98.97z"/>
  <path class="fil0" d="M185.67 1199.87c-37.19,37.54 -170.89,139.04 -182.26,180.57 -20.36,74.39 54.48,131.16 120.16,95.28 29.3,-26.04 635.74,-556.74 646.78,-596.12 24.27,-86.52 -71.98,-132.9 -134.88,-85.61 -141.19,106.12 -321.21,287.09 -449.8,405.88z"/>
  <path class="fil0" d="M820.84 2479.96c26.8,56.53 75.73,114.35 96.75,156.88 100.86,32.85 79.73,41 183.57,-7.31 49.04,-113 51.11,-103.91 -29.12,-233.12 -41.7,-67.16 -98.25,-149.29 -129.12,-216.8 -169.31,16.03 -269.68,-85.57 -362.12,-82.36 0.66,0.52 228,363.47 240.04,382.71z"/>
  <path class="fil0" d="M1029.19 619.12c-44.78,-4.29 -51.44,-33.31 -92.53,-54.12 -33.75,-17.08 -85.68,-14.12 -109.73,-43.56 30.57,-85.99 238.97,-7.34 202.26,97.68zm-207.16 -261.41c-55.02,13.55 -44.4,150.1 -31.7,188.63 19.01,57.58 67.63,109.19 113.62,133.13 133.74,69.62 300.15,-13.02 322.7,-124.24l-123.09 -92.47c-36.76,16.21 -72.86,53.56 -125,10.61 -18.4,-15.16 -26.6,-31.94 -26.65,-58.75 -0.07,-48.64 21.49,-30.3 5.52,-66.49 -36.5,-5.5 -62.21,55.57 -135.4,9.58z"/>
  <path class="fil1" d="M1325.51 1377.41c-57.5,-1.49 -94.25,-27.26 -143.32,-27.9 6.14,68.23 65.19,95.05 68.16,143.02l-126.5 26.89c6.24,37.53 -2.65,26.96 65.02,60.63 26.76,13.32 54.54,27.55 82.53,40.16 -18.44,49.74 -59.5,45.85 -56.91,98.88 33.38,8.52 45.55,4.16 78.93,2.7 46.8,-2.03 48.24,9.98 59.05,-23.51l-12.92 -6.39c-35.82,-10.02 -36.09,-1.87 -66.2,-8.24 2.03,-22.68 -4.58,-4.3 19.05,-25.62 28.82,-26.01 20.76,-1.81 28.06,-46.59l-125.61 -69.15 109.41 -26.33c-8.32,-58.98 -42.93,-63.24 -62.93,-115.31 46.3,4.42 95.61,27.41 113.78,9.58 15.19,-27.4 -2.19,-88.38 0.29,-128.49 7.2,15.14 68.13,90.13 107.37,99.88 10.54,-29.04 24.5,-63.93 44.04,-84.24 22.88,31.89 8.95,49.73 32.92,77.95 56.01,-10.73 44.93,-48.62 89.79,-65.5 -1.91,58.31 -20.79,68.1 0.74,92.73 33.72,-8.8 26.9,-42.71 33.81,-81.78 7.22,-40.78 22.35,-58.35 4.57,-88.51 -41.67,5.72 -67.78,66.71 -112.45,89.17 -13.49,-21.26 -9.97,-23.99 -16.95,-50.17 -10.6,-39.78 -15.21,-37.78 -32.43,-44.28 -29.79,20.4 -15.83,37.23 -57.61,99.9 -37.87,-12.75 -66.06,-71.63 -93.4,-94.82 -14.04,-11.92 -4.12,-7.25 -21.81,-13.91 -1.61,1.97 -3.49,2.6 -4.04,6.49 -1.58,11.08 -13.62,0.04 -8.81,70.28 1.97,28.71 4.19,53.54 4.37,82.48z"/>
  <path class="fil0" d="M942.25 249.83c12.34,48.26 -0.28,57.25 34.87,85.07 22.66,12.18 64.75,-12.15 97.83,9.33 28.6,18.58 38.01,48.35 35.39,96.16 38.85,23.1 75.19,65.4 123.73,84.57 11.51,-71.06 16.68,-92.45 -13.25,-153.73 -42.4,-86.83 -216.36,-176.01 -278.57,-121.4z"/>
  <path class="fil2" d="M1014.4 354.85c71.92,-26.17 108.16,83.5 41.75,111.23 -78,32.57 -124.11,-81.28 -41.75,-111.23zm-163.96 -115.63c47.96,-27.57 110.45,43.98 81.1,78.74 -57.97,92.97 -163.76,-16.41 -81.1,-78.74zm-28.41 118.49c73.19,45.99 98.9,-15.08 135.4,-9.58 15.97,36.19 -5.59,17.85 -5.52,66.49 0.05,26.81 8.25,43.59 26.65,58.75 52.14,42.95 88.24,5.6 125,-10.61l123.09 92.47c5.96,5.93 21.41,20.45 26.89,23.61 29.14,16.83 21.25,10.78 39.08,0.9 -12.27,-26.53 -159.53,-131.3 -182.28,-139.35 2.62,-47.81 -6.79,-77.58 -35.39,-96.16 -33.08,-21.48 -75.17,2.85 -97.83,-9.33 -53.59,-42.41 12.2,-115.25 -119.16,-115.46 -67.89,10.61 -68.53,90.74 -35.93,138.27z"/>
  <path class="fil3" d="M598.7 1780.57c33.77,24.84 139.21,55.45 186.28,66.57l-28.73 -195.39 -117.6 91.67c-5.28,4.3 -13.69,10.78 -18.25,14.78 -1.86,1.62 -7.34,6.48 -9.06,8.16 -9.25,9.12 -5.97,4.95 -12.64,14.21z"/>
  <path class="fil4" d="M2009.86 2323.22c0.19,-15.06 2.74,-5.64 -3.36,-20.94 -0.49,-1.27 -9.06,-15.62 -9.3,-15.96 -58.41,-82.54 -75.04,-84.89 -138.88,-208.21 -50.58,-97.69 -52.72,-118.7 -84.05,-211.66 -3.82,-11.32 -7.22,-25.18 -10.57,-35.24 -1.6,-4.86 -3.76,-11.81 -6.76,-17.29 -8.33,-15.16 -2.02,-6.4 -12.22,-16.33 -24.02,90.59 107.84,344.51 169.41,422.8l62.25 85.93c27.32,27.68 -0.05,11.64 33.48,16.9z"/>
  <path class="fil5" d="M826.93 521.44c24.05,29.44 75.98,26.48 109.73,43.56 41.09,20.81 47.75,49.83 92.53,54.12 36.71,-105.02 -171.69,-183.67 -202.26,-97.68z"/>
  <path class="fil0" d="M1014.4 354.85c-82.36,29.95 -36.25,143.8 41.75,111.23 66.41,-27.73 30.17,-137.4 -41.75,-111.23z"/>
  <path class="fil6" d="M2266.28 543.08c89.62,-38.09 259.6,-18.52 349.87,21.17 64.93,28.54 53.11,29.34 76.2,57.12l9.86 10.31c15.89,-45.51 -11.51,-64.16 -53.85,-83.34 -33.52,-15.17 -83.13,-29.25 -121.58,-35.98 -62.53,-10.93 -231.2,-28.94 -260.5,30.72z"/>
  <path class="fil7" d="M850.44 239.22c-82.66,62.33 23.13,171.71 81.1,78.74 29.35,-34.76 -33.14,-106.31 -81.1,-78.74z"/>
  <path class="fil5" d="M2462.26 800.56c76.78,29.93 63.64,58.12 95.15,25.38 -18.07,-27.12 -62.18,-49.84 -107.05,-63.15 -23.05,-6.83 -45.83,-10.36 -71.29,-11.25 -79.86,-2.79 -55.34,12.15 -59.53,30.56 32.25,10.76 94.47,-0.35 142.72,18.46z"/>
  <path class="fil8" d="M2140.66 2454.39c-4.17,31.72 54.8,59.81 107.11,99.89 31.44,24.08 99.66,71.36 139.13,73.18 -10.6,-43.23 -25.76,-21.9 -110.19,-86.25 -36.69,-27.95 -83.43,-50.55 -108.69,-87.35l-27.36 0.53z"/>
  <path class="fil9" d="M2140.66 2454.39c-1.31,-13.45 10.92,-6.77 -24.33,-40.71l-82.6 -82.88c-20.85,-13.72 -8.99,-6.09 -23.87,-7.58 1.14,10.65 -8.64,10.44 22.99,42.27 26.6,26.76 70.49,87.63 107.81,88.9z"/>
  <path class="fil10" d="M282.58 2660.03c-23.77,1.71 -82.99,5.99 -105.47,9.46 -72.78,11.27 -68.43,17.43 -79.59,24.49 46.39,26.58 -18.03,7.51 82.91,22.79 394.8,59.77 2945.79,70.3 3148.59,-22.79 -211.41,-94.01 -2763.31,-54.38 -3046.44,-33.95z"/>
  <g id="_2644454822352">
   <path class="fil1" d="M1475.43 98.91c35.6,50.82 -74.37,46.12 -69.23,105.14 6.11,70.51 39.23,8.1 54.09,-7.94 3.94,-4.25 135.29,-64.81 55.44,-128.8 -92.14,-73.84 -153.85,49.58 -90.56,44.4 35.55,-2.91 7.88,-40.67 50.26,-12.8z"/>
   <circle class="fil1" cx="1398.53" cy="297.59" r="31.79"/>
  </g>
  <g id="_2644454826704">
   <path class="fil1" d="M1333.92 100.55c14.07,-46.69 42.43,-102.65 -28.09,-100.48 -14.89,23.04 -41.73,163.3 -40.66,177.95 17.58,86.72 67.99,-74.95 68.75,-77.47z"/>
   <circle class="fil1" cx="1264.72" cy="261.99" r="31.79"/>
  </g>
  <g id="_2645519876464">
   <path class="fil11" d="M2517.59 402.6l-43.3 -25 -43.29 25 43.29 25 43.3 -25zm0 0z"/>
   <path class="fil11" d="M2477.43 483.06l43.31 -25 0 -50.02 -43.31 25 0 50.02zm0 0z"/>
   <path class="fil11" d="M2427.84 408.04l0 50.02 43.31 25 0 -50.02 -43.31 -25zm0 0z"/>
  </g>
 </g>
</svg>
