<?xml version="1.0" encoding="UTF-8"?>
<!DOCTYPE svg PUBLIC "-//W3C//DTD SVG 1.1//EN" "http://www.w3.org/Graphics/SVG/1.1/DTD/svg11.dtd">
<!-- Creator: CorelDRAW 2018 (64 Bit Versão de avaliação) -->
<svg xmlns="http://www.w3.org/2000/svg" xml:space="preserve" width="45.2034mm" height="27.3474mm" version="1.1" style="shape-rendering:geometricPrecision; text-rendering:geometricPrecision; image-rendering:optimizeQuality; fill-rule:evenodd; clip-rule:evenodd"
viewBox="0 0 4520.34 2734.74"
 xmlns:xlink="http://www.w3.org/1999/xlink">
 <defs>
  <style type="text/css">
   <![CDATA[
    .fil1 {fill:#020202}
    .fil2 {fill:#030204}
    .fil3 {fill:#090609}
    .fil0 {fill:black;fill-opacity:0.250980}
   ]]>
  </style>
 </defs>
 <g id="Camada_x0020_1">
  <metadata id="CorelCorpID_0Corel-Layer"/>
  <path class="fil0" d="M3528.79 2593.07c547.61,0 991.55,31.72 991.55,70.83 0,39.12 -443.94,70.83 -991.55,70.83 -547.61,0 -991.54,-31.71 -991.54,-70.83 0,-39.11 443.93,-70.83 991.54,-70.83z"/>
  <path class="fil0" d="M1063.29 2586.59c547.61,0 991.55,31.71 991.55,70.83 0,39.11 -443.94,70.82 -991.55,70.82 -547.61,0 -991.55,-31.71 -991.55,-70.82 0,-39.12 443.94,-70.83 991.55,-70.83z"/>
  <path class="fil1" d="M2803.75 1571.17c25,14.68 16.38,-23.65 24.23,31.31l-0.8 1068.33 85.68 0.45 18.4 -166.45c396.19,0.66 792.42,-1.65 1188.44,-0.8l33.78 164.11 84.07 8.43c-0.92,-365.17 -3.75,-732.49 -1.32,-1102.25l71.28 -3.58 2.94 -118.15 97.49 -0.61 -0.03 -69.62 -1758.07 0.94 1.03 67.69 99.27 0.97 1.17 118.52 52.44 0.71z"/>
  <path class="fil2" d="M2934.36 722.59c15.07,38.19 19.55,217.8 9.77,268.46 -584.4,-0.09 -142.39,-18.32 -740.02,1.56 -169.98,23.45 -188.42,264.89 -30.08,324.07 67.2,25.12 690.37,11.37 847.6,11.63 353.59,0.58 260.23,-160.15 258.17,-593.72 209.72,-4.4 317.84,29.22 499.99,57.84 75.66,11.89 36.69,1.88 68.01,-0.9l82.27 -477.32c-285.08,-59.18 -334.06,-107.8 -685.44,-70.2 -325.98,34.89 -302.38,171.59 -310.27,478.58z"/>
  <path class="fil2" d="M66.51 2612.69c80.68,21.41 112.57,21.88 199.28,21.46 140.51,-0.71 4.7,63.03 185.63,27.04 109.33,-21.75 687.42,-114.58 779.16,-164.42 20.59,-46.33 57.46,-96.67 85.71,-169.82 26.42,-68.41 9.62,-69.07 50.16,-124.49l9.46 -12.36c13.72,-20.08 5.35,-17.49 22.19,-39.01l274.34 48.53c8.79,104.27 49.13,281.43 37.14,374.86l23.08 34.04c70.79,65.99 188.25,136.15 187.9,-30.03 -30.48,-70.09 -75.96,-60.97 -137.25,-31.53l-35.61 -332.38c121.73,17.77 56.49,7.67 125.91,56.44 118.85,83.51 177.82,-163.61 27.53,-136.55 -76.55,13.78 -20.91,34.29 -143.07,8.03l145.45 -294.69c3.05,1.65 6.43,4.25 8.66,5.78 2.16,1.49 5.79,3.91 8.42,5.71 2.79,1.93 12.25,9 15.36,11.02 119.2,76.87 165.03,-84.81 96.07,-125.67 -44.07,-26.11 -76.53,13.84 -161.08,20.87l-182.78 357.74c-65.18,7.15 -216.79,-29.35 -285.81,-44.4 9.3,-83.59 -10.32,-31.64 -11.65,-98.7 -1.69,-85.37 27.08,-293.47 -79.79,-334.64 -89.78,61.6 -145.5,503.45 -166.13,645.94 -2.54,36.43 -5.18,70.92 -6.82,107.45 -2.22,48.93 10.87,62.56 -29.51,70.51l-2.7 2.97c-102.27,25.66 -269.65,47.52 -372.27,64.37 28.86,-19.9 59.09,-36.83 89.41,-60.78 31.14,-24.6 51.78,-34.76 54,-94.9l-159.43 -3.69c-163.3,10.93 -641.15,82.45 -717.47,173.05 10.36,38.78 27.53,50.22 66.51,62.25z"/>
  <path class="fil3" d="M4036.22 718.83c-45.33,-105.25 -9.41,-192.68 21.17,-357.1 20.09,-107.99 48.97,-237.74 60.75,-345.73l-86.7 -16 -216.6 1221.12c30.65,16.55 44.85,18.39 83.6,16.37 14.9,-80.78 29.29,-158.02 44.09,-239.15 7.81,-42.82 14.28,-80.68 21.72,-121.6 6.33,-34.87 10.73,-86.11 31.89,-108.84l199.9 506.35c-87.15,5.99 -380.78,-18.48 -432.27,12.25l0.57 45.18 511.98 -0.94 -240.1 -611.91z"/>
 </g>
</svg>
