<?xml version="1.0" encoding="UTF-8"?>
<!DOCTYPE svg PUBLIC "-//W3C//DTD SVG 1.1//EN" "http://www.w3.org/Graphics/SVG/1.1/DTD/svg11.dtd">
<!-- Creator: CorelDRAW -->
<svg xmlns="http://www.w3.org/2000/svg" xml:space="preserve" width="601px" height="500px" version="1.1" style="shape-rendering:geometricPrecision; text-rendering:geometricPrecision; image-rendering:optimizeQuality; fill-rule:evenodd; clip-rule:evenodd"
viewBox="0 0 227.38 189.11"
 xmlns:xlink="http://www.w3.org/1999/xlink"
 xmlns:xodm="http://www.corel.com/coreldraw/odm/2003">
 <defs>
  <style type="text/css">
   <![CDATA[
    .fil0 {fill:black}
    .fil3 {fill:black}
    .fil2 {fill:#020202}
    .fil1 {fill:black;fill-opacity:0.250980}
   ]]>
  </style>
 </defs>
 <g id="Camada_x0020_1">
  <metadata id="CorelCorpID_0Corel-Layer"/>
  <path class="fil0" d="M169.33 90.07c1.79,0.57 14.92,0.2 17.99,0.2 3.03,-0.01 6.07,-0.01 9.1,-0.01 2.99,0.01 6.11,0.43 6.6,-2.48 0.29,-1.8 -7.8,-23.71 -8.99,-27.17 -1.55,-4.54 -3.2,-8.95 -4.67,-13.51 -1.04,-3.22 -0.37,-3.73 0.38,-7.17l4.86 -22.42c1.17,-6.1 3.27,-9.48 -0.24,-9.67 -4.99,-0.28 -4.74,-0.28 -5.59,4.29 -1.72,9.23 -4.47,20.94 -6.44,30.2 -1.23,5.77 -2.54,11.53 -3.76,17.29 -0.6,2.83 -3.74,15.03 -3.05,16.92 0.67,0.27 5.79,1.22 6.51,-1.69l4.78 -22.07c0.95,1.1 2.37,6.37 3.04,8.19 1.36,3.69 8.37,23.23 8.26,24.46 -1.41,1.13 -4.79,0.65 -6.89,0.67 -2.51,0.03 -5.03,0.02 -7.54,0.04 -2.82,0.01 -12.53,-0.43 -14.28,0.42 -0.31,0.99 -0.31,2.47 -0.07,3.51z"/>
  <path class="fil0" d="M157.45 89.99c0.76,-1.59 0.59,-4.93 -0.17,-6.26 -2.26,-0.63 -12.39,0.86 -15.55,1.23 -3.65,0.44 -12.15,0.99 -15.15,1.94 -0.33,1.09 -0.3,2.41 0.03,3.5 1.59,0.49 29.42,0.07 30.84,-0.41z"/>
  <path class="fil1" d="M115.91 172.96c59.97,0 108.59,3.62 108.59,8.07 0,4.46 -48.62,8.08 -108.59,8.08 -59.96,0 -108.58,-3.62 -108.58,-8.08 0,-4.45 48.62,-8.07 108.58,-8.07z"/>
  <polygon class="fil2" points="117.81,106.79 118.98,182.04 124.91,181.84 125.03,170.67 209.32,171.03 209.62,181.73 215.48,181.94 215.7,106.74 220.52,106.21 220.71,98.37 227.37,98.1 227.38,93.64 106.96,93.93 106.8,98.16 113.74,98.63 113.85,106.63 "/>
  <path class="fil2" d="M26.73 172.69l-0.13 -1.46 8.05 -2.18 13 -4.22 -0.14 6.47c-1.7,0.92 -2.85,2.72 -2.85,4.78 0,3.01 2.43,5.44 5.43,5.44 3,0 5.43,-2.43 5.43,-5.44 0,-2.11 -1.2,-3.94 -2.97,-4.84l-0.12 -6.23 22.78 6.74c-1.77,0.9 -2.98,2.73 -2.98,4.85 0,3 2.43,5.44 5.43,5.44 3.01,0 5.44,-2.44 5.44,-5.44 0,-1.98 -1.06,-3.71 -2.65,-4.66 -1.05,-1.83 -0.15,-2.24 -1.21,-3.4 -1.4,-1.52 -18.99,-6.2 -23.63,-7.75 -1.88,-0.62 -1.73,-0.48 -3.17,-1.44l0.13 -18.67 3.82 -1.37c6.81,-3.37 22.59,-1.01 24.44,-10.67 -8.79,-6.22 -45.05,-3.19 -57.55,-1.96l-9.4 -25.7c3.43,2.76 5.32,8.15 11.69,7.58 1.03,-10.58 -14.75,-54.71 -22.48,-57.47 -4.29,5.63 -3.29,15.71 -0.64,22.69l-2.45 2.66c0.25,3.82 5.81,17.05 7.41,21.27l11.43 30.48c4.2,10.64 19.13,8.13 24.38,10.69 2,0.97 0.44,0.97 4.54,1.52l-0.01 19.47c-9.41,2.65 -27.24,7 -27.4,10.41l-0.03 0.82c-1.93,0.84 -3.27,2.75 -3.27,4.98 0,3.01 2.43,5.44 5.43,5.44 3,0 5.43,-2.43 5.43,-5.44 0,-1.28 -0.44,-2.46 -1.18,-3.39z"/>
  <path class="fil0" d="M52.09 121.54c1.58,-0.58 28.5,0.03 34.96,0.02 0.52,-0.01 1.84,-0.09 2.17,0.26 0.49,0.53 5.51,40.19 6.18,44.8 0.82,5.59 0.71,5.73 2.35,10.85l0.58 0.71c1.98,2.47 4.26,3.74 7.78,3.85 3.28,0.1 6.03,-1.35 7.9,-3.73 0.07,-0.08 0.68,-0.89 0.69,-0.89 0.58,-2.05 1.41,-2.79 1.42,-5.57 0,-1.54 -2.42,-16.26 -2.76,-18.14 -1.45,-8.02 -3.47,-27.33 -4.84,-35.34 -1.3,-7.54 -1.13,-15.07 -12.29,-15.61 -6.52,-0.31 -26.62,-1.77 -32.3,-1.71 0.56,-5.54 0.91,-10.03 1.96,-15.49 2.44,-12.72 -0.56,-20.34 10.36,-15.4l9.89 4.44c3.86,1.82 7.55,2.59 10.8,-0.89 0.46,-0.5 0.62,-0.63 1.2,-1.21 0.51,-0.5 0.62,-0.84 1.06,-1.37l12.75 -14.28c0.4,-0.5 0.69,-0.87 1.03,-1.33 4.49,0.9 4.03,0.19 5.29,-3.68 1.33,-4.08 0.74,-2.92 2.53,-4.97 0.47,-0.54 0.59,-0.84 1.1,-1.33 1.24,-1.19 3.51,-3.5 4.02,-5.85 0.52,-2.42 -0.23,-5.59 -2.34,-6.92l5.43 -16.37c1.41,-0.04 0.92,0.18 1.97,-0.43 1.91,-1.12 5.29,0.22 5.33,0.24 0.9,1.45 0.01,1.3 1.91,1.95 1.26,0.44 1.64,0.85 3.02,0.55 0.59,-1.15 2.59,-5.92 2.21,-7.51 -0.5,-0.45 -2.89,-1.54 -3.95,-1.38 -0.2,0.03 -1.59,0.8 -3.99,-0.48 -1.12,-0.59 -0.76,-2.24 -2.14,-3.17 -0.57,-0.38 -2.99,-1.19 -3.82,-1.49 -4.18,-1.47 -4.01,-1.47 -8.98,-0.77 -2.35,0.32 -6.96,1.65 -6.43,4.12 1.55,1 8.45,0.57 8.58,3.88 0.08,2.19 -0.61,1.3 1.06,2.64 -0.33,2.44 -2.7,8.51 -3.58,11.15 -0.43,1.28 -1.21,4.77 -2.08,5.46 -0.44,0.36 -1.64,0.68 -2.4,1.22 -2.25,1.61 -4.21,4.38 -5.61,5.47 -0.59,0.47 -1.01,1.28 -1.7,1.93l-13.17 12.67c-2.27,2.1 -1.72,1.92 -2.65,2.9 -0.3,0.31 -0.55,0.5 -0.88,0.81 -2.01,1.92 -2.7,1.11 -5.15,-0.05l-14.75 -7.2c-3.35,-1.57 -6.51,-3.68 -10.84,-3.73 -8.03,-0.08 -13.92,5.73 -16.76,12.71 -4.83,11.85 -10.32,37.45 -7.59,49.85 1.01,4.56 2.5,6.51 5.3,9.41 3.97,4.1 9.32,4 10.17,4.4z"/>
  <path class="fil0" d="M92.37 28.66c0.11,-1.77 0.46,-2.09 -1.11,-2.24l-32.41 -3.21c-0.52,0.07 -0.5,0.2 -0.66,1.02 -3.55,18.53 17.98,27.55 28.46,16.53 0.63,-0.65 1.17,-0.98 1.73,-1.76 2.03,-2.8 3.72,-5.8 3.99,-10.34z"/>
  <path class="fil3" d="M57.98 14.22l0 0c2.03,-5.32 5.68,-9.6 11.25,-11.74 10.95,-4.2 22.09,3.04 24.99,13.77l0.05 0c-0.48,-12.16 -14.49,-18.85 -25.06,-15.3 -6.51,2.18 -9.57,7.48 -11.23,13.27z"/>
  <path class="fil0" d="M57.2 17.49c-1.34,0.2 -2.23,0.76 -1.67,2.39 0.34,1 1.89,0.95 3.07,1.05 2.5,0.23 4.98,0.49 7.48,0.74 5.06,0.49 10.03,1.03 15.09,1.55 1.65,0.18 18.32,2.01 19.1,1.86 0.9,-0.18 1.7,-1.54 1.16,-2.68 -0.63,-1.32 -4.51,-1.67 -6.37,-1.92 -0.15,-4.43 -4.43,-12.19 -7.94,-14.86 -5.24,-3.98 -11.47,-5.28 -17.83,-2.84 -6.64,2.55 -10.38,7.93 -12.09,14.71z"/>
 </g>
</svg>
